<?xml version="1.0" encoding="iso-8859-1"?>
<!-- Generator: Adobe Illustrator 16.0.0, SVG Export Plug-In . SVG Version: 6.00 Build 0)  -->
<!DOCTYPE svg PUBLIC "-//W3C//DTD SVG 1.1//EN" "http://www.w3.org/Graphics/SVG/1.1/DTD/svg11.dtd">
<svg version="1.1" id="Layer_1" xmlns="http://www.w3.org/2000/svg" xmlns:xlink="http://www.w3.org/1999/xlink" x="0px" y="0px"
	 width="28.964px" height="31.813px" viewBox="0 0 28.964 31.813" style="enable-background:new 0 0 28.964 31.813;"
	 xml:space="preserve">
<g>
	<polygon points="17.31,2.34 3.487,3.741 3.209,3.551 16.318,2.128 16.303,1.982 3.023,3.423 2.792,3.264 16.053,1.814 
		16.036,1.667 2.605,3.136 2.35,2.961 15.817,1.471 15.801,1.325 2.165,2.833 1.879,2.638 15.521,1.121 15.504,0.974 1.693,2.51 
		1.385,2.298 1.827,2.252 15.86,0.727 15.345,0 0,1.626 0,1.849 0,2.441 0,21.986 2.779,23.948 2.779,23.963 4.676,23.77 
		4.676,4.647 17.31,3.41 	"/>
	<polygon points="23.006,6.155 9.182,7.557 8.904,7.367 22.014,5.944 21.998,5.797 8.718,7.238 8.487,7.08 21.748,5.629 
		21.732,5.483 8.3,6.951 8.046,6.776 21.513,5.286 21.497,5.14 7.86,6.648 7.575,6.453 21.216,4.936 21.2,4.789 7.389,6.325 
		7.081,6.113 7.522,6.067 21.556,4.542 21.041,3.816 5.695,5.441 5.695,5.664 5.695,6.256 5.695,25.801 8.475,27.763 8.475,27.779 
		10.372,27.585 10.372,8.462 23.005,7.225 	"/>
	<path d="M15.14,11.591L14.863,11.4l13.109-1.422l-0.016-0.146l-13.279,1.44l-0.231-0.158l13.261-1.45L27.69,9.517l-13.431,1.469
		l-0.255-0.175l13.467-1.49l-0.016-0.147l-13.637,1.508l-0.284-0.195l13.641-1.517l-0.016-0.147l-13.811,1.535l-0.308-0.211
		l0.441-0.046l14.034-1.526L27,7.85L11.653,9.476v0.222v0.592v19.545l2.78,1.962v0.015l14.527-1.474l0.003-20.15L15.14,11.591z
		 M26.366,18.977l-8.382,0.855v-4.46l8.382-0.854V18.977z"/>
</g>
<g>
</g>
<g>
</g>
<g>
</g>
<g>
</g>
<g>
</g>
<g>
</g>
<g>
</g>
<g>
</g>
<g>
</g>
<g>
</g>
<g>
</g>
<g>
</g>
<g>
</g>
<g>
</g>
<g>
</g>
</svg>
