<?xml version="1.0" encoding="utf-8"?>
<!-- Generator: Adobe Illustrator 17.1.0, SVG Export Plug-In . SVG Version: 6.00 Build 0)  -->
<!DOCTYPE svg PUBLIC "-//W3C//DTD SVG 1.0//EN" "http://www.w3.org/TR/2001/REC-SVG-20010904/DTD/svg10.dtd">
<svg version="1.0" id="Layer_1" xmlns="http://www.w3.org/2000/svg" xmlns:xlink="http://www.w3.org/1999/xlink" x="0px" y="0px"
	 width="24px" height="24px" viewBox="0 0 24 24" style="enable-background:new 0 0 24 24;" xml:space="preserve">
<path d="M22,0h-4l-1.5,17.6L16.1,11H14V6l-7,5V6l-7,5v12v1h16h1h7L22,0z M5,21H3v-3h2V21z M5,16H3v-3h2V16z M9,21H7v-3h2V21z M9,16
	H7v-3h2V16z M13,21h-2v-3h2V21z M13,16h-2v-3h2V16z"/>
</svg>
